<svg width="281" height="306" viewBox="0 0 281 306" fill="none" xmlns="http://www.w3.org/2000/svg">
<path d="M103 135C103 122.849 112.595 111 125.222 111C131.609 111 141.624 120.225 142 127C142.205 130.694 143.51 132.913 142.222 136.778C140.366 142.346 136.368 148.328 131.778 152C117.477 163.44 96.4298 179.759 80.5 162.444C72.9247 154.21 65.7991 143.025 65.0556 131.5C64.474 122.486 63.1223 110.303 68 102.444C74.3978 92.1368 79.7625 84.1743 91 78.5555C102.779 72.6659 115.444 69.8494 128 66.2222C136.859 63.6629 148.403 62.0048 157 66.2222C168.263 71.7476 178.552 79.3057 189 86.2222C199.225 92.9909 202.941 104.247 204.222 115.778C205.704 129.116 206.884 145.699 204.444 158.944C196.976 199.488 163.788 229.907 122.444 232C93.7607 233.452 67.6694 229.821 42.5556 215C21.7686 202.732 9.90503 183.838 5.05556 160.5C0.778762 139.918 1.02061 114.181 10.6111 95C19.5413 77.1397 33.3278 61.5287 46.9444 47.1111C59.9257 33.3663 75.011 25.6791 91.5556 17C110.182 7.22892 133.426 -1.70519 154.778 3.22222C178.674 8.73681 204.756 17.9737 226 30.2222C236.076 36.0319 246.017 42.8992 253.889 51.5C260.508 58.7324 268.464 66.9173 272 76.2222C281.23 100.511 278 128.346 278 153.778C278 170.591 277.185 186.438 273.389 202.889C269.509 219.701 266.597 238.788 258.889 254.444C247.786 276.998 229.762 291.643 205.5 297.944C183.073 303.77 160.599 304.999 137.611 302.444C118.807 300.355 97.2843 294.596 80.7778 285.278C78.8881 284.211 48.0104 263.99 50 262" stroke="black" stroke-width="3" stroke-linecap="round"/>
</svg>
